Moulin Rouge!*2001*[BluRay][1080p][ENG][Sub. POL]

General information:
Country: USA, Australia 
Release: 9 May 2001 (Cannes Film Festival)
Genre: Drama, Musical, Romance 
Director: Baz Luhrmann
Screenplay: Baz Luhrmann, Craig Pearce
Original Music: Craig Armstrong 
Cinematography by: Donald M. McAlpine
Duration: 2h 7mn
Language: English
Subtitles: English, Polish
Rating: 8.0/10 - 20499 votes

Cast:
Nicole Kidman  ...  Satine  
Ewan McGregor  ...  Christian  
John Leguizamo  ...  Toulouse-Lautrec  
Jim Broadbent  ...  Harold Zidler  
Richard Roxburgh  ...  The Duke  
Garry McDonald  ...  The Doctor  
Jacek Koman  ...  The Unconscious Argentinean  
Matthew Whittet  ...  Satie  
Kerry Walker  ...  Marie  
Caroline O'Connor  ...  Nini Legs In The Air  
Christine Anu  ...  Arabia  
Natalie Jackson Mendoza  ...  China Doll (as Natalie Mendoza)  
Lara Mulcahy  ...  Môme Fromage  
David Wenham  ...  Audrey  
Kylie Minogue  ...  The Green Fairy  

Plot:
A poet falls for a beautiful courtesan whom a jealous duke covets in this stylish musical, with music drawn from familiar 20th century sources.

Specifications:
General
Format                           : Matroska
Overall bit rate                 : 13.8 Mbps

Video
Format                           : AVC
Format/Info                      : Advanced Video Codec
Format profile                   : High@L4.1
Format settings, CABAC           : Yes
Format settings, ReFrames        : 5 frames
Format settings, GOP             : M=1, N=16
Muxing mode                      : Container profile=Unknown@4.1
Codec ID                         : V_MPEG4/ISO/AVC
Bit rate                         : 12.1 Mbps
Width                            : 1 920 pixels
Height                           : 800 pixels
Display aspect ratio             : 2.40:1
Frame rate                       : 23.976 fps

Audio 1
Format                           : DTS
Format/Info                      : Digital Theater Systems
Codec ID                         : A_DTS
Bit rate mode                    : Constant
Bit rate                         : 1 510 Kbps
Channel(s)                       : 6 channels
Channel positions                : Front: L C R, Side: L R, LFE
Sampling rate                    : 48.0 KHz
Bit depth                        : 24 bits
Stream size                      : 1.35 GiB (11%)
Title                            : English DTS 5.1 @ 1.5 Mbps

Audio 2
Format                           : AC-3
Format/Info                      : Audio Coding 3
Mode extension                   : CM (complete main)
Codec ID                         : A_AC3
Bit rate mode                    : Constant
Bit rate                         : 224 Kbps
Channel(s)                       : 2 channels
Channel positions                : Front: L R
Sampling rate                    : 48.0 KHz
Bit depth                        : 16 bits
Stream size                      : 205 MiB (2%)
Title                            : English Commentary Dolby Digital 2.0 @ 224 Kbps

Text 1
Format                           : UTF-8
Codec ID                         : S_TEXT/UTF8
Codec ID/Info                    : UTF-8 Plain Text
Title                            : English SDH

Text 2
Format                           : UTF-8
Codec ID                         : S_TEXT/UTF8
Codec ID/Info                    : UTF-8 Plain Text
Title                            : English Commentary

Text 3
Format                           : UTF-8
Codec ID                         : S_TEXT/UTF8
Codec ID/Info                    : UTF-8 Plain Text
Language                         : Polish
